<svg width="39" height="39" viewBox="0 0 39 39" fill="none" xmlns="http://www.w3.org/2000/svg">
<path d="M33.2898 5.71259C30.5628 2.98517 27.0882 1.12766 23.3055 0.374956C19.5228 -0.377745 15.6018 0.00821524 12.0385 1.48402C8.47512 2.95982 5.42943 5.45923 3.28659 8.66601C1.14374 11.8729 0 15.6431 0 19.5C0 23.3569 1.14374 27.1271 3.28659 30.334C5.42943 33.5408 8.47512 36.0402 12.0385 37.516C15.6018 38.9918 19.5228 39.3777 23.3055 38.625C27.0882 37.8723 30.5628 36.0148 33.2898 33.2874C36.946 29.6305 39 24.6711 39 19.5C39 14.3289 36.946 9.36947 33.2898 5.71259ZM5.08567 12.901C6.06826 10.7216 7.52422 8.78851 9.34774 7.24244C11.1712 5.69637 13.3163 4.57609 15.6271 3.96316C17.9379 3.35024 20.3563 3.26005 22.7063 3.69915C25.0563 4.13825 27.2789 5.09556 29.2125 6.50151C24.4261 6.04946 18.4343 8.4958 13.5771 13.3442C11.7439 15.1744 10.1908 17.2652 8.96798 19.5487C7.30484 17.5701 5.99186 15.3218 5.08567 12.901ZM15.8373 35.521C12.1362 34.5294 8.9099 32.2506 6.73788 29.0941C4.56586 25.9376 3.59037 22.1101 3.98664 18.2989C5.99862 22.6688 11.0775 26.6396 17.743 28.4124C20.2313 29.0874 22.8066 29.3862 25.3834 29.2987C24.5077 31.7212 23.228 33.9779 21.5986 35.973C19.6656 36.1686 17.7131 36.0094 15.8373 35.5033V35.521ZM27.9716 16.9871C27.3146 14.4876 26.2932 12.0984 24.9402 9.89625C27.4745 9.4451 30.067 9.42714 32.6073 9.84304C33.7443 11.4172 34.5826 13.1868 35.0802 15.0637C36.0735 18.7654 35.7143 22.7 34.0669 26.1604C32.4194 29.6209 29.592 32.3805 26.0925 33.9433C28.858 30.0345 29.7443 23.626 27.9716 16.9871Z" fill="#0067F9"/>
</svg>
