<svg width="166" height="40" viewBox="0 0 166 40" fill="none" xmlns="http://www.w3.org/2000/svg">
<path d="M32.5714 39V36.2857C32.5714 35.9292 32.5011 35.5763 32.3647 35.2469C32.2284 34.9177 32.0285 34.6185 31.7764 34.3663C31.5242 34.1143 31.225 33.9144 30.8958 33.778C30.5665 33.6416 30.2135 33.5714 29.857 33.5714H18.9992C15.3998 33.5714 11.9479 32.1415 9.40269 29.5964C6.85754 27.0512 5.42767 23.5994 5.42761 20C5.42761 18.2178 5.77865 16.453 6.46069 14.8064C7.14273 13.1598 8.14241 11.6638 9.40265 10.4035C10.6629 9.14329 12.159 8.14365 13.8056 7.46163C15.4521 6.77961 17.2169 6.42861 18.9992 6.42863H29.8562C30.2127 6.42873 30.5659 6.3586 30.8952 6.22226C31.2246 6.08589 31.524 5.88597 31.776 5.63392C32.0283 5.38185 32.2282 5.08259 32.3647 4.75322C32.5011 4.42386 32.5714 4.07084 32.5714 3.71431V1H18.9998C16.5047 1 14.034 1.49145 11.7288 2.44629C9.42366 3.40113 7.32913 4.80067 5.56485 6.56498C3.80054 8.3293 2.40103 10.4238 1.44621 12.729C0.491398 15.0342 -2.67329e-05 17.5049 1.09071e-09 20C-9.44928e-10 25.039 2.00175 29.8718 5.56489 33.435C9.12804 36.9982 13.9607 39 18.9998 39H32.5714Z" fill="#CDCDCD"/>
<path d="M10.8562 20C10.8562 22.1596 11.7141 24.2307 13.2411 25.7576C14.7681 27.2847 16.8392 28.1425 18.9987 28.1425H32.5713C34.0111 28.1425 35.3917 28.7146 36.4097 29.7326C37.4277 30.7506 37.9998 32.1314 37.9998 33.5712V38.9998H43.4284V33.5714C43.4284 30.692 42.2846 27.9304 40.2485 25.8942C38.2123 23.8581 35.4507 22.7143 32.5713 22.7143H18.9991C18.2793 22.7143 17.5889 22.4283 17.0798 21.9194C16.5708 21.4103 16.2848 20.7199 16.2848 20C16.2848 19.2801 16.5708 18.5897 17.0798 18.0807C17.5889 17.5717 18.2793 17.2857 18.9991 17.2857H32.5713C35.4507 17.2857 38.2123 16.1418 40.2485 14.1057C42.2846 12.0696 43.4284 9.30809 43.4284 6.42863V1H37.9989V6.42863C37.9989 7.86819 37.4271 9.24882 36.4093 10.2668C35.3915 11.2848 34.0109 11.8568 32.5713 11.8571H18.9991C17.9298 11.857 16.8709 12.0676 15.8829 12.4768C14.8949 12.886 13.9972 13.4858 13.2411 14.2419C12.485 14.9981 11.8852 15.8958 11.476 16.8838C11.0667 17.8717 10.8562 18.9306 10.8562 20Z" fill="#CDCDCD"/>
<path d="M76.698 30.758C76.964 30.568 76.964 30.264 76.736 29.922L74.304 26.274C74.076 25.894 73.772 25.856 73.392 26.122C71.872 27.148 70.01 27.718 68.11 27.718C64.994 27.718 63.17 26.046 63.17 23.12V15.672C63.17 12.936 64.88 11.112 68.072 11.112C69.744 11.112 71.53 11.568 72.936 12.48C73.316 12.708 73.62 12.67 73.886 12.29L76.28 8.642C76.508 8.3 76.47 7.996 76.09 7.768C73.924 6.248 70.998 5.336 67.958 5.336C61.422 5.336 56.976 8.832 56.976 15.444V23.386C56.976 29.998 61.384 33.532 68.072 33.532C71.606 33.532 74.494 32.392 76.698 30.758ZM96.7985 25.438V20.878C96.7985 15.786 93.3405 12.708 87.7925 12.708C82.2065 12.708 78.7485 15.786 78.7485 20.878V25.438C78.7485 30.454 82.2065 33.494 87.7925 33.494C93.3405 33.494 96.7985 30.454 96.7985 25.438ZM84.6765 25.438V20.878C84.6765 18.978 85.7785 17.876 87.7925 17.876C89.8065 17.876 90.9085 18.978 90.9085 20.878V25.438C90.9085 27.338 89.8065 28.364 87.7925 28.364C85.7785 28.364 84.6765 27.338 84.6765 25.438ZM111.168 23.044L116.374 14.038C116.64 13.582 116.45 13.24 115.918 13.24H110.788C110.446 13.24 110.142 13.392 109.99 13.734L107.406 19.358L104.822 13.734C104.67 13.392 104.404 13.24 104.024 13.24H98.8945C98.4005 13.24 98.1725 13.582 98.4385 14.038L103.644 23.044L98.1345 32.202C97.9065 32.658 98.0965 33 98.5905 33H103.872C104.214 33 104.518 32.81 104.67 32.506L107.406 27.072L110.18 32.506C110.332 32.848 110.598 33 110.94 33H116.222C116.716 33 116.944 32.658 116.678 32.202L111.168 23.044ZM135.3 20.802C135.3 15.064 131.5 12.708 126.826 12.708C122 12.708 118.01 15.14 118.01 20.802V25.59C118.01 30.872 122 33.494 126.94 33.494C130.284 33.494 132.754 32.468 134.692 30.986C135.034 30.72 135.034 30.378 134.806 30.036L132.83 27.414C132.602 27.072 132.298 26.996 131.956 27.262C130.588 28.06 129.03 28.63 127.13 28.63C125.116 28.63 123.862 27.642 123.862 25.704V25.096H134.616C135.072 25.096 135.3 24.868 135.3 24.45V20.802ZM129.714 20.536V21.334H123.862V20.536C123.862 18.446 125.04 17.534 126.788 17.534C128.498 17.534 129.714 18.484 129.714 20.536ZM143.861 33.038C144.279 33.038 144.507 32.772 144.507 32.354V18.218C145.115 18.028 146.103 17.876 147.167 17.876C149.181 17.876 150.359 18.75 150.359 21.524V32.354C150.359 32.772 150.587 33.038 151.043 33.038H155.527C155.983 33.038 156.211 32.772 156.211 32.354V21.524C156.211 15.824 152.943 12.708 147.167 12.708C144.469 12.708 141.505 13.316 139.187 14.266C138.845 14.418 138.693 14.684 138.693 15.064V32.354C138.693 32.772 138.921 33.038 139.377 33.038H143.861Z" fill="#CDCDCD"/>
</svg>
