<svg width="199" height="38" viewBox="0 0 199 38" fill="none" xmlns="http://www.w3.org/2000/svg">
<path d="M58.7781 12.7385L50.4069 4.3674C50.4018 4.36223 50.3962 4.35745 50.391 4.35228C50.3858 4.34711 50.3797 4.34014 50.3737 4.33418C47.9309 1.89158 44.7104 0.380503 41.2705 0.0627588C37.8305 -0.254985 34.388 0.640631 31.539 2.59442C28.6899 0.640631 25.2474 -0.254985 21.8074 0.0627588C18.3675 0.380503 15.1471 1.89158 12.7042 4.33418L4.33308 12.7051C1.72494 15.3139 0.185196 18.8028 0.0156505 22.4877C-0.153895 26.1728 1.05898 29.7884 3.41654 32.6257C5.77412 35.4628 9.10636 37.3174 12.7601 37.8255C16.4139 38.3336 20.1258 37.4588 23.168 35.3725C25.6313 37.0617 28.548 37.9661 31.5348 37.9671C34.5217 37.9679 37.4388 37.0651 39.9031 35.3773C42.9418 37.4765 46.6557 38.3634 50.315 37.8641C53.9744 37.3645 57.3146 35.5149 59.6799 32.6782C62.0449 29.8415 63.2636 26.2229 63.0969 22.5335C62.93 18.8439 61.3896 15.3502 58.7781 12.7385ZM18.6224 31.1806C16.7326 32.0832 14.5846 32.2885 12.558 31.7605C10.5314 31.2327 8.75674 30.0052 7.54756 28.2953C6.3384 26.5854 5.77261 24.5032 5.95021 22.4165C6.12778 20.3298 7.03731 18.373 8.51805 16.8921L16.889 8.52094C18.1883 7.22335 19.8574 6.35978 21.6672 6.04885C23.477 5.73792 25.3387 5.99485 26.9965 6.78436L21.0751 12.7051C18.8044 14.9641 17.3343 17.9035 16.889 21.0754C16.7909 21.769 16.7415 22.4684 16.741 23.1689C16.7351 25.938 17.5116 28.6524 18.9811 30.9995C18.8625 31.0628 18.7429 31.1229 18.6224 31.18V31.1806ZM37.8172 29.4478C36.1503 31.1038 33.8948 32.0312 31.5451 32.0275C29.1954 32.0235 26.9432 31.0883 25.2816 29.4269C23.6202 27.7653 22.685 25.5131 22.681 23.1634C22.6772 20.8136 23.6047 18.5583 25.2607 16.8913L31.539 10.613L37.8172 16.8913C39.4794 18.5576 40.4128 20.8152 40.4128 23.1689C40.4128 25.5224 39.4794 27.78 37.8172 29.4464V29.4478ZM54.5925 29.481C53.287 30.7831 51.6091 31.6471 49.791 31.9537C47.9729 32.2602 46.1044 31.994 44.4442 31.1919C44.3248 31.1344 44.2067 31.0741 44.0899 31.0111C45.5639 28.6613 46.3429 25.9426 46.3369 23.1689C46.3363 22.4684 46.287 21.769 46.1889 21.0754C45.7437 17.9035 44.2735 14.9641 42.0028 12.7051L36.1176 6.82017L36.0844 6.78695C37.7414 5.9978 39.6021 5.74068 41.4111 6.05088C43.2201 6.36109 44.8886 7.22341 46.1881 8.51954C46.1941 8.52551 46.1997 8.53188 46.2054 8.53785C46.2112 8.54381 46.2162 8.54779 46.2214 8.55297L54.5533 16.8849L54.5931 16.9247C56.258 18.5898 57.1935 20.8482 57.1935 23.2029C57.1935 25.5576 56.258 27.816 54.5931 29.4812L54.5925 29.481Z" fill="#CDCDCD"/>
<path d="M83.664 15.204L82.828 26.452V26.604C82.828 27.0853 83.0053 27.402 83.36 27.554L85.716 28.542L85.336 32H75.874L75.494 28.618L77.242 27.554L79.408 12.886C79.4333 12.7087 79.446 12.4933 79.446 12.24C79.446 11.936 79.37 11.708 79.218 11.556C79.0913 11.404 78.838 11.214 78.458 10.986L76.71 9.998L76.938 6.388H87.844L93.278 24.096L98.674 6.388H108.858L109.01 10.378L106.578 10.986L108.63 25.882C108.706 26.3887 108.807 26.7813 108.934 27.06C109.086 27.3387 109.415 27.7947 109.922 28.428L110.72 29.454L110.492 32H99.168L98.826 28.504L101.942 27.706L100.65 14.976L95.786 32.152L89.288 32.722L83.664 15.204ZM121.884 32.494C118.667 32.494 116.26 31.6707 114.664 30.024C113.094 28.3773 112.308 25.8567 112.308 22.462C112.308 20.2833 112.701 18.3833 113.486 16.762C114.297 15.1407 115.45 13.8993 116.944 13.038C118.439 12.1767 120.2 11.746 122.226 11.746C128.788 11.746 132.068 15.1407 132.068 21.93C132.068 25.2487 131.169 27.8453 129.37 29.72C127.597 31.5693 125.102 32.494 121.884 32.494ZM122.492 28.048C122.999 28.048 123.442 28.01 123.822 27.934C124.202 27.8327 124.608 27.6807 125.038 27.478C125.19 26.8953 125.317 26.148 125.418 25.236C125.52 24.324 125.57 23.45 125.57 22.614C125.57 20.562 125.241 19.004 124.582 17.94C123.949 16.876 122.999 16.344 121.732 16.344C120.896 16.344 120.048 16.458 119.186 16.686C119.009 17.066 118.87 17.6867 118.768 18.548C118.667 19.384 118.616 20.3467 118.616 21.436C118.616 23.564 118.946 25.198 119.604 26.338C120.288 27.478 121.251 28.048 122.492 28.048ZM133.507 28.086L143.349 16.496L138.751 16.838L136.813 19.422L134.267 19.004C134.469 16.0653 134.672 13.7727 134.875 12.126H150.189L150.721 16.61L141.601 27.63L146.389 27.288L148.631 24.628L151.253 25.16C151.126 27.0853 150.885 29.3653 150.531 32H133.849L133.507 28.086ZM158.907 32.494C157.185 32.494 155.804 32.0253 154.765 31.088C153.727 30.1253 153.207 28.8967 153.207 27.402C153.207 25.4007 154.208 23.83 156.209 22.69C158.236 21.55 161.175 20.904 165.025 20.752C165.025 19.5613 164.924 18.6873 164.721 18.13C164.544 17.5473 164.202 17.1547 163.695 16.952C163.214 16.724 162.467 16.61 161.453 16.61C160.415 16.61 159.68 16.648 159.249 16.724L157.691 19.802L154.879 19.612C154.449 17.5853 154.145 15.4827 153.967 13.304C155.386 12.8227 156.931 12.4427 158.603 12.164C160.301 11.8853 161.884 11.746 163.353 11.746C166.039 11.746 167.964 12.278 169.129 13.342C170.295 14.3807 170.877 16.116 170.877 18.548V26.49C170.877 26.946 170.915 27.2627 170.991 27.44C171.093 27.6173 171.295 27.7947 171.599 27.972L173.119 28.846L172.967 31.202C170.029 31.886 167.711 32.266 166.013 32.342C165.963 32.19 165.887 31.924 165.785 31.544C165.684 31.1387 165.595 30.7587 165.519 30.404C164.531 31.0373 163.442 31.544 162.251 31.924C161.086 32.304 159.971 32.494 158.907 32.494ZM161.453 28.2C162.467 28.2 163.695 27.858 165.139 27.174L164.987 24.286C164.379 24.2353 163.974 24.21 163.771 24.21C163.087 24.21 162.289 24.286 161.377 24.438C160.465 24.5647 159.743 24.7167 159.211 24.894C159.135 25.2233 159.097 25.5273 159.097 25.806C159.097 26.566 159.3 27.1613 159.705 27.592C160.136 27.9973 160.719 28.2 161.453 28.2ZM174.476 28.352L176.832 27.668V18.472C176.832 17.9147 176.794 17.56 176.718 17.408C176.642 17.2307 176.44 17.0407 176.11 16.838L174.438 15.926L174.552 13.076L175.388 12.924C178.707 12.2653 181.101 11.9107 182.57 11.86C182.773 12.392 182.938 12.9747 183.064 13.608C184.61 12.8987 185.864 12.4173 186.826 12.164C187.814 11.8853 188.739 11.746 189.6 11.746C193.628 11.746 195.642 14.1527 195.642 18.966V26.414C195.642 26.946 195.68 27.3007 195.756 27.478C195.832 27.6553 196.048 27.8453 196.402 28.048L198.226 29.112L198.074 31.962H187.586L187.396 28.352L189.258 27.82V20.638C189.258 19.498 189.22 18.7 189.144 18.244C189.068 17.788 188.853 17.4333 188.498 17.18C188.169 16.9267 187.574 16.8 186.712 16.8C185.8 16.8 184.648 16.9393 183.254 17.218V26.414C183.254 26.946 183.292 27.3007 183.368 27.478C183.444 27.6553 183.647 27.8453 183.976 28.048L185.838 29.112L185.686 31.962H174.666L174.476 28.352Z" fill="#CDCDCD"/>
</svg>
