<svg width="167" height="38" viewBox="0 0 167 38" fill="none" xmlns="http://www.w3.org/2000/svg">
<path d="M32.6669 14.3136L32.644 14.2907C32.6422 14.2895 32.6407 14.2877 32.6398 14.2858L18.3544 0L4.06911 14.2854C4.06747 14.2871 4.06655 14.2893 4.06489 14.2904L4.04132 14.3132C1.85691 16.5099 0.469422 19.3737 0.0994435 22.4495C-0.270535 25.5253 0.398222 28.6365 1.9994 31.2886C3.60058 33.9407 6.04229 35.9815 8.93639 37.0864C11.8305 38.1913 15.0109 38.2972 17.972 37.3869C18.2212 37.3107 18.4875 37.3107 18.7367 37.3869C21.6975 38.2968 24.8777 38.1909 27.7717 37.0858C30.6656 35.9808 33.107 33.9401 34.7081 31.2882C36.3092 28.6363 36.978 25.5253 36.6082 22.4497C36.2383 19.3741 34.851 16.5103 32.6669 14.3136ZM9.14877 23.7339C9.07923 23.8034 9.02408 23.886 8.98647 23.9768C8.94884 24.0675 8.92947 24.1649 8.92949 24.2632C8.95491 26.7846 9.66746 29.2511 10.9904 31.3976C11.0205 31.4463 11.0344 31.5033 11.0301 31.5603C11.0259 31.6173 11.0037 31.6715 10.9667 31.7152C10.9298 31.759 10.8799 31.7898 10.8244 31.8034C10.7688 31.8171 10.7104 31.8128 10.6574 31.7912C9.66281 31.3729 8.75928 30.7647 7.99733 30.0009C6.43584 28.4391 5.558 26.3214 5.55658 24.1129C5.55516 21.9044 6.43029 19.7856 7.98979 18.2219L18.3544 7.85827L28.7185 18.2219C30.2782 19.7854 31.1536 21.9042 31.1522 24.1129C31.1509 26.3214 30.2729 28.4391 28.7113 30.0009C27.9493 30.7647 27.0458 31.3729 26.0514 31.7912C25.9983 31.8128 25.9398 31.8171 25.8843 31.8034C25.8288 31.7898 25.779 31.7588 25.7419 31.7152C25.705 31.6715 25.6827 31.6173 25.6785 31.5601C25.6742 31.5031 25.688 31.4461 25.7181 31.3974C27.0414 29.2511 27.7543 26.7846 27.7801 24.2632C27.7801 24.1649 27.7606 24.0675 27.7228 23.9766C27.685 23.8857 27.6296 23.8032 27.5599 23.7337L22.6576 18.5339C22.6088 18.4931 22.5473 18.4708 22.4837 18.4708C22.4202 18.4708 22.3586 18.4931 22.3099 18.5339C22.2611 18.5745 22.2282 18.6311 22.2168 18.6936C22.2053 18.7561 22.2162 18.8205 22.2476 18.8759C24.1515 22.3213 22.5143 27.2702 19.784 30.0009L19.7696 30.0153C19.3928 30.3881 18.884 30.5971 18.354 30.5969C17.8239 30.5967 17.3153 30.3873 16.9387 30.0144L16.9255 30.0009C14.1942 27.2702 12.5578 22.3219 14.4621 18.8766C14.4934 18.8213 14.5043 18.7569 14.4929 18.6944C14.4815 18.6318 14.4485 18.5752 14.3998 18.5346C14.351 18.4939 14.2894 18.4715 14.2259 18.4715C14.1624 18.4715 14.1008 18.4939 14.052 18.5346L9.14877 23.7339Z" fill="#CDCDCD"/>
<path d="M62.642 33C63.022 33 63.288 32.81 63.402 32.43L65.872 23.728C66.67 20.802 67.544 16.356 67.848 13.886H68C68.342 16.356 69.216 20.802 70.014 23.728L72.484 32.43C72.598 32.81 72.864 33 73.244 33H78.678C79.058 33 79.324 32.81 79.438 32.43L86.62 6.59C86.772 6.134 86.506 5.83 86.05 5.83H80.958C80.578 5.83 80.312 6.02 80.236 6.438L78.184 15.102C77.576 17.648 76.55 22.702 76.018 25.894H75.866C75.296 22.626 74.27 18.066 73.472 14.95L71.192 6.78C71.116 6.4 70.888 6.21 70.47 6.21H65.416C64.998 6.21 64.77 6.4 64.656 6.78L62.452 14.95C61.616 18.104 60.552 22.626 59.982 25.894H59.83C59.336 22.702 58.31 17.648 57.702 15.102L55.612 6.438C55.536 6.02 55.308 5.83 54.89 5.83H49.836C49.342 5.83 49.114 6.134 49.266 6.59L56.448 32.43C56.562 32.81 56.828 33 57.208 33H62.642ZM87.4925 14.798C87.2265 14.988 87.2265 15.254 87.4165 15.634L88.9745 18.598C89.1645 18.978 89.5445 19.016 89.8865 18.826C90.9885 18.218 92.9645 17.762 94.6365 17.762C97.1065 17.762 97.8285 18.864 97.8285 20.878V21.258C96.8785 21.144 95.7765 21.03 94.5985 21.03C89.4305 21.03 86.3145 23.006 86.3145 26.958C86.3145 31.442 89.7725 33.494 95.2445 33.494C97.8285 33.494 100.831 33.076 103.073 32.392C103.453 32.278 103.643 32.012 103.643 31.632V21.22C103.643 15.444 100.565 12.708 95.3205 12.708C92.0525 12.708 89.2785 13.658 87.4925 14.798ZM92.2045 26.806C92.2045 25.59 93.1165 24.906 95.2065 24.906C96.0425 24.906 97.0685 24.982 97.8285 25.134V28.478C97.1445 28.63 96.1185 28.782 95.2445 28.782C93.4205 28.782 92.2045 28.136 92.2045 26.806ZM113.422 13.354V6.514C113.422 6.058 113.194 5.83 112.776 5.83H108.292C107.836 5.83 107.608 6.058 107.608 6.514V31.328C107.608 31.708 107.76 31.974 108.14 32.126C110.458 32.962 113.574 33.494 116.158 33.494C121.478 33.494 125.164 30.302 125.164 24.868V21.106C125.164 15.976 121.82 12.708 116.956 12.708C115.702 12.708 114.372 13.012 113.422 13.354ZM116.044 28.326C115.094 28.326 114.144 28.174 113.422 27.908V18.408C114.144 18.028 115.056 17.762 116.082 17.762C118.134 17.762 119.274 18.826 119.274 21.03V24.982C119.274 27.338 118.096 28.326 116.044 28.326ZM146.203 25.438V20.878C146.203 15.786 142.745 12.708 137.197 12.708C131.611 12.708 128.153 15.786 128.153 20.878V25.438C128.153 30.454 131.611 33.494 137.197 33.494C142.745 33.494 146.203 30.454 146.203 25.438ZM134.081 25.438V20.878C134.081 18.978 135.183 17.876 137.197 17.876C139.211 17.876 140.313 18.978 140.313 20.878V25.438C140.313 27.338 139.211 28.364 137.197 28.364C135.183 28.364 134.081 27.338 134.081 25.438ZM160.573 23.044L165.779 14.038C166.045 13.582 165.855 13.24 165.323 13.24H160.193C159.851 13.24 159.547 13.392 159.395 13.734L156.811 19.358L154.227 13.734C154.075 13.392 153.809 13.24 153.429 13.24H148.299C147.805 13.24 147.577 13.582 147.843 14.038L153.049 23.044L147.539 32.202C147.311 32.658 147.501 33 147.995 33H153.277C153.619 33 153.923 32.81 154.075 32.506L156.811 27.072L159.585 32.506C159.737 32.848 160.003 33 160.345 33H165.627C166.121 33 166.349 32.658 166.083 32.202L160.573 23.044Z" fill="#CDCDCD"/>
</svg>
