<svg width="139" height="38" viewBox="0 0 139 38" fill="none" xmlns="http://www.w3.org/2000/svg">
<path d="M5.50723 7.99927C5.50723 8.18007 5.5428 8.35911 5.61198 8.52616C5.68116 8.6932 5.78257 8.84498 5.91041 8.97283C6.03824 9.10069 6.19001 9.20212 6.35706 9.27131C6.5241 9.3405 6.70313 9.37611 6.88394 9.37611C9.44 9.37611 11.8914 10.3915 13.6988 12.1989C15.5062 14.0063 16.5216 16.4577 16.5216 19.0138C16.5216 21.5698 15.5062 24.0212 13.6988 25.8286C11.8914 27.6361 9.44 28.6514 6.88393 28.6514C6.52117 28.655 6.17451 28.8017 5.91926 29.0595C5.66403 29.3172 5.52083 29.6654 5.52083 30.0283C5.52083 30.391 5.66403 30.7392 5.91926 30.9969C6.17451 31.2547 6.52117 31.4014 6.88393 31.405C8.51118 31.405 10.1225 31.0844 11.6258 30.4618C13.1292 29.839 14.4952 28.9263 15.6458 27.7757C16.7965 26.625 17.7092 25.259 18.3319 23.7557C18.9546 22.2523 19.2751 20.6411 19.2751 19.0138C19.2751 17.3865 18.9546 15.7753 18.3319 14.2718C17.7092 12.7685 16.7965 11.4025 15.6458 10.2519C14.4952 9.10123 13.1292 8.1885 11.6258 7.56577C10.1225 6.94307 8.51118 6.62256 6.88394 6.62256C6.51881 6.62256 6.16864 6.76761 5.91045 7.02578C5.65228 7.28397 5.50723 7.63414 5.50723 7.99927Z" fill="#DD1B60"/>
<path d="M2.75377 36.6369L2.75377 24.5165C3.94355 25.4139 5.39366 25.8985 6.88404 25.897C8.7098 25.897 10.4608 25.1717 11.7518 23.8808C13.0428 22.5897 13.7681 20.8387 13.7681 19.0129C13.7681 17.1873 13.0428 15.4363 11.7518 14.1452C10.4608 12.8542 8.7098 12.129 6.88404 12.129C6.51887 12.129 6.16867 12.274 5.91046 12.5322C5.65226 12.7904 5.50719 13.1406 5.50719 13.5058C5.50719 13.871 5.65226 14.2212 5.91046 14.4794C6.16867 14.7376 6.51887 14.8827 6.88404 14.8827C7.70096 14.8827 8.49954 15.1248 9.1788 15.5787C9.85806 16.0326 10.3875 16.6776 10.7001 17.4324C11.0128 18.1871 11.0946 19.0176 10.9352 19.8188C10.7759 20.62 10.3825 21.3561 9.80486 21.9336C9.22722 22.5113 8.49125 22.9047 7.69002 23.0642C6.88881 23.2235 6.05831 23.1417 5.30363 22.8291C4.54888 22.5164 3.90369 21.9871 3.44982 21.3078C2.99596 20.6285 2.75377 19.8299 2.75377 19.0131L2.75377 1.3906C2.75556 1.20865 2.72133 1.02813 2.65288 0.859497C2.58457 0.690862 2.48341 0.537457 2.35544 0.408145C2.22733 0.278834 2.07504 0.17618 1.90707 0.106125C1.73911 0.036069 1.55891 -5.33679e-07 1.37693 -5.41634e-07C1.19508 -5.49583e-07 1.01488 0.0360689 0.846915 0.106125C0.67895 0.17618 0.526653 0.278834 0.398549 0.408145C0.270582 0.537457 0.16942 0.690862 0.101107 0.859497C0.0326557 1.02813 -0.00157075 1.20865 0.000216423 1.3906L0.000214883 36.6369C0.00378828 36.9996 0.150448 37.3463 0.408306 37.6015C0.666026 37.8568 1.01419 38 1.37692 38C1.7398 38 2.08796 37.8568 2.34568 37.6015C2.60354 37.3463 2.7502 36.9996 2.75377 36.6369Z" fill="#DD1B60"/>
<path d="M32.634 6.198C33.1153 6.22333 33.736 6.24867 34.496 6.274C35.2813 6.29933 36.0033 6.312 36.662 6.312C37.2953 6.312 38.0427 6.312 38.904 6.312C39.7653 6.28666 40.6267 6.274 41.488 6.274C42.3747 6.24867 43.1473 6.236 43.806 6.236C46.9727 6.236 49.3287 6.67933 50.874 7.566C52.4447 8.42733 53.23 9.89667 53.23 11.974C53.23 13.5193 52.7233 14.8493 51.71 15.964C50.6967 17.0533 49.278 17.7247 47.454 17.978C49.81 18.13 51.634 18.738 52.926 19.802C54.218 20.8407 54.864 22.4367 54.864 24.59C54.864 26.0087 54.5093 27.2753 53.8 28.39C53.0907 29.5047 51.9507 30.3913 50.38 31.05C48.8347 31.6833 46.7827 32 44.224 32C43.008 32 41.678 32 40.234 32C38.8153 32.0253 37.4347 32.038 36.092 32.038C34.7493 32.0633 33.584 32.0887 32.596 32.114C32.596 31.658 32.6213 31.2273 32.672 30.822C32.7227 30.4167 32.786 30.0747 32.862 29.796C33.546 29.7453 34.0653 29.6187 34.42 29.416C34.8 29.188 35.066 28.7953 35.218 28.238C35.37 27.6807 35.446 26.8573 35.446 25.768V12.278C35.446 11.29 35.37 10.5427 35.218 10.036C35.0913 9.504 34.838 9.13667 34.458 8.934C34.078 8.73133 33.546 8.592 32.862 8.516C32.786 8.23733 32.7227 7.87 32.672 7.414C32.6467 6.958 32.634 6.55267 32.634 6.198ZM42.78 8.554C42.2227 8.554 41.6653 8.64267 41.108 8.82V17.56H42.4C44.224 17.56 45.516 17.142 46.276 16.306C47.036 15.4447 47.416 14.3553 47.416 13.038C47.416 11.9993 47.188 11.1507 46.732 10.492C46.276 9.83333 45.6933 9.352 44.984 9.048C44.3 8.71867 43.5653 8.554 42.78 8.554ZM41.108 25.958C41.108 27.0473 41.222 27.8707 41.45 28.428C41.678 28.96 42.0073 29.3147 42.438 29.492C42.894 29.6693 43.4767 29.758 44.186 29.758C45.554 29.758 46.618 29.3527 47.378 28.542C48.1633 27.706 48.556 26.5407 48.556 25.046C48.556 23.6527 48.252 22.5887 47.644 21.854C47.0613 21.094 46.276 20.5747 45.288 20.296C44.3 19.992 43.2107 19.84 42.02 19.84H41.108V25.958ZM57.749 32.114C57.749 31.658 57.7617 31.24 57.787 30.86C57.8377 30.4547 57.9137 30.1 58.015 29.796C59.0284 29.7707 59.6997 29.53 60.029 29.074C60.3837 28.618 60.561 27.7567 60.561 26.49V20.372C60.561 19.4853 60.3964 18.8393 60.067 18.434C59.7377 18.0033 58.965 17.75 57.749 17.674C57.749 17.294 57.7744 16.9267 57.825 16.572C57.8757 16.192 57.9897 15.8373 58.167 15.508C59.003 15.508 59.8644 15.4573 60.751 15.356C61.663 15.2293 62.4864 15.0647 63.221 14.862C63.981 14.6593 64.5384 14.4567 64.893 14.254C65.2224 14.3807 65.4884 14.6087 65.691 14.938C65.8937 15.242 65.995 15.6853 65.995 16.268V26.49C65.995 27.7567 66.1597 28.618 66.489 29.074C66.8184 29.53 67.439 29.7707 68.351 29.796C68.4524 30.1 68.5157 30.4673 68.541 30.898C68.5917 31.3033 68.617 31.7087 68.617 32.114C68.0597 32.0633 67.2744 32.0253 66.261 32C65.2477 32 64.2344 32 63.221 32C62.1824 32 61.1437 32 60.105 32C59.0917 32.0253 58.3064 32.0633 57.749 32.114ZM62.803 11.252C61.891 11.252 61.1437 11.0113 60.561 10.53C60.0037 10.0233 59.725 9.37733 59.725 8.592C59.725 7.68 60.029 6.97067 60.637 6.464C61.2704 5.95733 62.043 5.704 62.955 5.704C63.9937 5.704 64.7917 5.95733 65.349 6.464C65.9064 6.97067 66.185 7.66733 66.185 8.554C66.185 9.314 65.8684 9.96 65.235 10.492C64.627 10.9987 63.8164 11.252 62.803 11.252ZM70.9175 32.114C70.9175 31.658 70.9302 31.24 70.9555 30.86C71.0062 30.4547 71.0822 30.1 71.1835 29.796C72.1715 29.7707 72.8428 29.53 73.1975 29.074C73.5522 28.618 73.7295 27.7567 73.7295 26.49V10.872C73.7295 9.98533 73.5522 9.33933 73.1975 8.934C72.8682 8.50333 72.0955 8.25 70.8795 8.174C70.8795 7.794 70.9048 7.42667 70.9555 7.072C71.0062 6.692 71.1202 6.33733 71.2975 6.008C72.1335 6.008 72.9948 5.95733 73.8815 5.856C74.7935 5.72933 75.6168 5.56467 76.3515 5.362C77.1115 5.15933 77.6688 4.95667 78.0235 4.754C78.3528 4.88067 78.6188 5.10867 78.8215 5.438C79.0242 5.742 79.1255 6.18533 79.1255 6.768V22.12L81.7855 19.764C82.4948 19.1053 82.9762 18.5987 83.2295 18.244C83.5082 17.8893 83.6475 17.6107 83.6475 17.408C83.6475 17.028 83.3055 16.8253 82.6215 16.8C82.4695 16.42 82.3682 16.0527 82.3175 15.698C82.2668 15.318 82.2415 14.9253 82.2415 14.52C82.8748 14.5453 83.6855 14.5707 84.6735 14.596C85.6615 14.596 86.5988 14.596 87.4855 14.596C88.0682 14.596 88.6635 14.596 89.2715 14.596C89.8795 14.5707 90.4748 14.5453 91.0575 14.52C91.0575 14.9253 91.0322 15.318 90.9815 15.698C90.9309 16.078 90.8422 16.4453 90.7155 16.8C89.7782 16.876 88.9675 17.066 88.2835 17.37C87.5995 17.674 86.8015 18.2567 85.8895 19.118L83.4195 21.36C84.3822 22.2467 85.3068 23.2093 86.1935 24.248C87.0802 25.2613 88.0175 26.414 89.0055 27.706C89.5882 28.466 90.0822 28.9853 90.4875 29.264C90.9182 29.5173 91.5008 29.6693 92.2355 29.72C92.2355 30.1253 92.1975 30.5307 92.1215 30.936C92.0709 31.316 91.9822 31.6707 91.8555 32C90.9182 32 89.8795 32.0253 88.7395 32.076C87.5995 32.1267 86.6115 32.2153 85.7755 32.342C85.3195 31.658 84.7368 30.8347 84.0275 29.872C83.3182 28.9093 82.5328 27.9087 81.6715 26.87C80.8102 25.8313 79.9615 24.8307 79.1255 23.868V26.49C79.1255 27.7313 79.2648 28.58 79.5435 29.036C79.8222 29.492 80.3415 29.7453 81.1015 29.796C81.2028 30.1 81.2662 30.4673 81.2915 30.898C81.3168 31.3033 81.3295 31.7087 81.3295 32.114C80.7722 32.0633 80.0248 32.0253 79.0875 32C78.1502 32 77.2002 32 76.2375 32C75.2495 32 74.2488 32 73.2355 32C72.2222 32.0253 71.4495 32.0633 70.9175 32.114ZM77.7575 22.386L77.5675 23.488L78.2515 22.88C78.0742 22.728 77.9095 22.5633 77.7575 22.386ZM103.096 32.342C100.081 32.342 97.7505 31.544 96.1038 29.948C94.4825 28.352 93.6718 26.1987 93.6718 23.488C93.6718 21.5373 94.0898 19.878 94.9258 18.51C95.7618 17.142 96.9018 16.0907 98.3458 15.356C99.7898 14.6213 101.424 14.254 103.248 14.254C105.325 14.254 107.06 14.634 108.454 15.394C109.872 16.154 110.936 17.2053 111.646 18.548C112.38 19.8653 112.748 21.398 112.748 23.146C112.748 25.0207 112.355 26.642 111.57 28.01C110.784 29.378 109.657 30.442 108.188 31.202C106.744 31.962 105.046 32.342 103.096 32.342ZM103.59 29.948C104.78 29.948 105.667 29.3907 106.25 28.276C106.858 27.136 107.162 25.7173 107.162 24.02C107.162 21.588 106.718 19.7387 105.832 18.472C104.97 17.2053 103.957 16.572 102.792 16.572C101.601 16.572 100.714 17.1293 100.132 18.244C99.5491 19.3333 99.2578 20.7013 99.2578 22.348C99.2578 24.6027 99.6378 26.4393 100.398 27.858C101.158 29.2513 102.222 29.948 103.59 29.948ZM135.486 26.49C135.486 27.7567 135.626 28.6307 135.904 29.112C136.208 29.568 136.702 29.796 137.386 29.796C137.513 30.1253 137.589 30.48 137.614 30.86C137.665 31.2147 137.69 31.6327 137.69 32.114C137.133 32.0887 136.411 32.0633 135.524 32.038C134.663 32.0127 133.814 32 132.978 32C132.421 32 131.788 32 131.078 32C130.394 32.0253 129.736 32.038 129.102 32.038C128.469 32.0633 127.962 32.0887 127.582 32.114C127.582 31.6833 127.595 31.278 127.62 30.898C127.646 30.4927 127.722 30.1253 127.848 29.796C128.558 29.796 129.102 29.5427 129.482 29.036C129.862 28.5293 130.052 27.6047 130.052 26.262V22.12C130.052 20.524 129.799 19.422 129.292 18.814C128.786 18.1807 128.064 17.864 127.126 17.864C126.189 17.864 125.34 18.3833 124.58 19.422C123.82 20.4607 123.44 21.9807 123.44 23.982V26.49C123.44 27.782 123.605 28.656 123.934 29.112C124.289 29.568 124.846 29.796 125.606 29.796C125.733 30.1507 125.809 30.518 125.834 30.898C125.885 31.2527 125.91 31.658 125.91 32.114C125.353 32.0887 124.555 32.0633 123.516 32.038C122.503 32.0127 121.578 32 120.742 32C120.16 32 119.501 32 118.766 32C118.057 32.0253 117.373 32.038 116.714 32.038C116.081 32.0633 115.574 32.0887 115.194 32.114C115.194 31.6327 115.22 31.202 115.27 30.822C115.321 30.4167 115.397 30.0747 115.498 29.796C116.486 29.796 117.145 29.568 117.474 29.112C117.829 28.6307 118.006 27.7567 118.006 26.49V20.752C118.006 20.0427 117.943 19.4727 117.816 19.042C117.715 18.6113 117.462 18.2947 117.056 18.092C116.676 17.864 116.068 17.7247 115.232 17.674C115.232 17.294 115.258 16.9267 115.308 16.572C115.384 16.192 115.511 15.8373 115.688 15.508C117.031 15.4827 118.323 15.3433 119.564 15.09C120.831 14.8367 121.756 14.558 122.338 14.254C122.668 14.3807 122.934 14.6087 123.136 14.938C123.339 15.242 123.44 15.698 123.44 16.306C123.44 16.99 123.314 17.75 123.06 18.586C123.212 18.282 123.364 17.978 123.516 17.674C123.668 17.37 123.871 17.0787 124.124 16.8C124.631 16.192 125.34 15.6473 126.252 15.166C127.164 14.6847 128.216 14.444 129.406 14.444C130.47 14.444 131.458 14.6467 132.37 15.052C133.308 15.4573 134.055 16.116 134.612 17.028C135.195 17.94 135.486 19.1433 135.486 20.638V26.49Z" fill="#DD1B60"/>
</svg>
