<svg width="170" height="41" viewBox="0 0 170 41" fill="none" xmlns="http://www.w3.org/2000/svg">
<path d="M13.2941 15.399H20.1509V10.2858C19.073 8.95274 14.5062 9.07385 13.2941 10.2858V15.399Z" fill="#CDCDCD"/>
<path d="M32.1617 4.23222C27.4876 1.46184 22.1545 0 16.7212 0C11.2879 0 5.95472 1.46184 1.28081 4.23222C0.453593 6.84553 0 10.2596 0 13.1989C0 23.4331 5.47552 32.7729 13.2941 36.6577C14.3948 37.2054 15.5418 37.6544 16.7217 38C17.9023 37.6547 19.0499 37.2052 20.151 36.657C27.968 32.7726 33.445 23.4325 33.445 13.1989C33.4448 10.2596 32.9876 6.84553 32.1617 4.23222ZM21.9656 27.1287L20.151 32.7968V18.8292C19.073 17.4952 14.5062 17.6168 13.2941 18.8292V32.7968L11.4797 27.1215C8.25159 23.5986 5.87768 18.6189 5.87768 13.1989C5.87637 11.7259 6.02281 10.2565 6.31482 8.81264C9.56958 7.27835 13.1233 6.48273 16.7216 6.48273C20.3199 6.48273 23.8737 7.27835 27.1284 8.81264C27.4216 10.2563 27.5689 11.7258 27.5681 13.1989C27.5676 18.6225 25.1973 23.6051 21.9656 27.1287Z" fill="#CDCDCD"/>
<path d="M51.2591 33C51.6011 33 51.9051 32.81 52.0191 32.43L53.4631 27.794H62.6971L64.1031 32.43C64.2171 32.81 64.5211 33 64.9011 33H69.9551C70.4491 33 70.6771 32.696 70.4871 32.24L61.6711 6.362C61.5571 6.02 61.2911 5.83 60.9491 5.83H55.1731C54.8311 5.83 54.6031 6.02 54.4511 6.362L45.6351 32.24C45.4831 32.696 45.6731 33 46.1671 33H51.2591ZM57.9851 12.48H58.1371C58.8971 15.026 60.0751 19.168 61.1391 22.512H55.0211C56.0471 19.168 57.2251 15.026 57.9851 12.48ZM89.4568 31.1V15.026C89.4568 14.646 89.3048 14.38 88.9628 14.228C86.7208 13.354 83.8708 12.708 81.0588 12.708C75.8908 12.708 71.9388 15.33 71.9388 21.258V24.374C71.9388 29.542 75.3208 32.506 80.2228 32.506C81.3628 32.506 82.6928 32.278 83.7568 31.936C83.7948 34.748 82.5788 35.66 80.1848 35.66C78.4368 35.66 76.8408 35.128 75.6248 34.406C75.2448 34.178 74.9788 34.254 74.7508 34.596L72.7368 37.674C72.5088 38.054 72.5848 38.396 72.8888 38.624C75.0168 40.03 77.2588 40.676 80.4128 40.676C86.7968 40.676 89.4568 37.598 89.4568 31.1ZM77.8288 24.45V21.106C77.8288 18.712 79.0448 17.876 81.0968 17.876C82.0088 17.876 83.0728 18.028 83.6428 18.256V26.882C83.1108 27.3 82.0848 27.528 80.9828 27.528C79.0828 27.528 77.8288 26.692 77.8288 24.45ZM99.4398 13.316V6.514C99.4398 6.058 99.2118 5.83 98.7938 5.83H94.3098C93.8538 5.83 93.6258 6.058 93.6258 6.514V32.316C93.6258 32.772 93.8538 33 94.3098 33H98.7938C99.2118 33 99.4398 32.772 99.4398 32.316V18.332C100.086 18.066 101.112 17.838 102.062 17.838C104.304 17.838 105.292 18.902 105.292 21.486V32.316C105.292 32.772 105.52 33 105.976 33H110.46C110.916 33 111.144 32.772 111.144 32.316V21.486C111.144 15.786 107.99 12.708 103.278 12.708C101.682 12.708 100.466 12.936 99.4398 13.316ZM132.628 25.438V20.878C132.628 15.786 129.17 12.708 123.622 12.708C118.036 12.708 114.578 15.786 114.578 20.878V25.438C114.578 30.454 118.036 33.494 123.622 33.494C129.17 33.494 132.628 30.454 132.628 25.438ZM120.506 25.438V20.878C120.506 18.978 121.608 17.876 123.622 17.876C125.636 17.876 126.738 18.978 126.738 20.878V25.438C126.738 27.338 125.636 28.364 123.622 28.364C121.608 28.364 120.506 27.338 120.506 25.438ZM141.356 33C141.774 33 142.002 32.772 142.002 32.316V18.256C142.724 17.952 143.75 17.762 144.89 17.762C145.65 17.762 146.486 17.8 147.246 17.914C147.702 17.99 147.968 17.762 147.968 17.306V13.81C147.968 13.392 147.778 13.164 147.36 13.088C145.992 12.86 144.814 12.708 143.674 12.708C141.204 12.708 138.772 13.24 136.682 14.266C136.34 14.456 136.188 14.722 136.188 15.064V32.316C136.188 32.772 136.416 33 136.872 33H141.356ZM166.9 20.802C166.9 15.064 163.1 12.708 158.426 12.708C153.6 12.708 149.61 15.14 149.61 20.802V25.59C149.61 30.872 153.6 33.494 158.54 33.494C161.884 33.494 164.354 32.468 166.292 30.986C166.634 30.72 166.634 30.378 166.406 30.036L164.43 27.414C164.202 27.072 163.898 26.996 163.556 27.262C162.188 28.06 160.63 28.63 158.73 28.63C156.716 28.63 155.462 27.642 155.462 25.704V25.096H166.216C166.672 25.096 166.9 24.868 166.9 24.45V20.802ZM161.314 20.536V21.334H155.462V20.536C155.462 18.446 156.64 17.534 158.388 17.534C160.098 17.534 161.314 18.484 161.314 20.536Z" fill="#CDCDCD"/>
</svg>
